<?xml version="1.0" encoding="UTF-8" ?>
<!DOCTYPE svg PUBLIC "-//W3C//DTD SVG 1.1//EN" "http://www.w3.org/Graphics/SVG/1.1/DTD/svg11.dtd">
<svg width="340pt" height="340pt" viewBox="0 0 340 340" version="1.1" xmlns="http://www.w3.org/2000/svg">
<g id="#ffffffff">
<path fill="#ffffff" opacity="1.00" d=" M 0.00 0.00 L 340.00 0.00 L 340.00 340.00 L 0.00 340.00 L 0.00 0.00 M 158.67 1.54 C 149.41 2.88 140.13 4.19 130.93 5.89 C 114.17 10.40 97.91 17.07 82.99 25.99 C 72.70 32.81 62.23 39.67 53.72 48.72 C 47.17 55.52 39.72 61.70 34.97 69.99 C 30.76 76.77 26.48 83.51 22.34 90.33 C 13.71 105.04 8.84 121.56 5.05 138.09 C 0.76 156.53 1.32 175.69 3.59 194.37 C 4.82 204.86 8.21 214.89 10.89 225.06 C 11.85 229.66 14.14 233.77 15.98 238.04 C 23.62 255.81 34.38 272.26 47.72 286.27 C 58.48 296.98 69.86 307.24 82.98 315.00 C 97.75 324.40 114.44 330.24 131.26 334.75 C 146.51 337.73 162.04 340.20 177.63 338.78 C 187.51 337.84 197.63 338.08 207.23 335.20 C 217.27 332.17 227.57 329.68 237.01 324.99 C 255.25 316.31 273.29 306.11 287.29 291.29 C 294.87 284.14 301.52 276.10 307.86 267.85 C 316.93 255.70 323.49 241.86 328.57 227.63 C 330.47 222.68 333.06 217.93 333.56 212.56 C 335.01 204.60 337.26 196.78 337.73 188.67 C 338.89 164.87 338.23 140.37 330.27 117.66 C 328.08 106.88 322.27 97.46 317.05 87.95 C 314.20 83.14 311.72 78.08 308.54 73.47 C 302.66 66.04 297.25 58.19 290.31 51.68 C 277.17 39.12 262.40 28.20 246.33 19.67 C 239.98 16.44 233.26 14.07 226.73 11.29 C 223.57 9.93 220.31 8.83 216.97 8.00 C 198.07 2.79 178.27 -0.16 158.67 1.54 Z" />
<path fill="#ffffff" opacity="1.00" d=" M 155.61 21.51 C 181.44 18.83 207.96 23.35 231.33 34.70 C 239.14 37.70 246.10 42.45 253.22 46.77 C 261.55 51.87 268.19 59.13 275.60 65.39 C 282.41 71.03 287.05 78.66 292.57 85.45 C 296.73 92.31 301.26 98.96 305.05 106.02 C 308.76 115.83 313.13 125.52 315.06 135.90 C 319.40 151.23 317.71 167.31 318.05 183.02 C 318.41 198.00 313.14 212.41 308.39 226.40 C 306.08 233.80 301.62 240.24 298.03 247.04 C 292.84 257.01 285.05 265.28 277.32 273.32 C 273.44 277.42 270.11 282.19 265.38 285.40 C 262.21 287.52 258.95 289.54 256.04 292.02 C 248.56 298.38 239.84 303.16 230.70 306.67 C 225.94 308.56 221.55 311.42 216.51 312.55 C 211.36 313.73 206.19 314.87 201.03 316.03 C 185.66 319.36 169.82 319.36 154.17 318.89 C 141.45 317.98 129.08 314.36 117.23 309.78 C 109.32 306.08 100.75 303.65 93.74 298.24 C 85.03 293.25 77.08 287.08 69.64 280.37 C 58.51 271.25 50.90 258.88 42.77 247.22 C 34.79 233.45 28.13 218.73 24.96 203.05 C 21.22 189.01 21.96 174.37 21.94 159.99 C 21.32 148.67 25.44 137.90 28.09 127.08 C 32.75 109.95 42.06 94.58 52.08 80.10 C 56.33 74.41 61.27 69.29 65.99 64.00 C 74.20 55.63 83.88 48.85 94.05 43.07 C 101.56 37.86 109.66 33.53 118.14 30.12 C 130.37 26.27 142.89 23.24 155.61 21.51 M 168.12 48.06 C 167.61 53.98 167.93 59.95 168.06 65.89 C 172.31 66.35 176.60 66.03 180.88 65.94 C 181.39 60.02 181.06 54.05 180.94 48.11 C 176.68 47.65 172.38 47.96 168.12 48.06 M 115.37 62.45 C 112.22 64.10 109.29 66.18 106.38 68.23 C 107.77 72.33 110.09 76.03 112.10 79.84 C 113.10 81.41 114.04 83.45 116.01 83.95 C 119.54 82.35 122.65 80.01 125.86 77.88 C 123.35 72.33 119.98 67.21 116.78 62.04 C 116.43 62.14 115.73 62.34 115.37 62.45 M 231.19 62.01 C 228.50 67.28 224.81 72.15 222.99 77.81 C 226.11 80.10 229.67 82.86 233.71 82.91 C 235.89 81.80 236.68 79.01 238.24 77.22 C 239.83 74.35 242.53 71.74 242.73 68.32 C 238.94 66.14 235.40 63.33 231.19 62.01 M 172.59 88.33 C 168.76 88.85 167.14 92.85 167.04 96.27 C 166.75 116.19 167.21 136.11 167.03 156.03 C 164.92 157.97 162.37 159.44 160.44 161.59 C 157.39 165.75 156.18 171.22 157.43 176.29 C 158.32 184.23 166.57 189.24 173.98 189.83 C 180.90 189.13 188.02 184.85 190.41 178.08 C 191.24 173.95 191.13 169.50 189.77 165.49 C 188.27 161.31 183.42 159.50 181.99 155.32 C 181.59 135.46 182.64 115.56 181.64 95.72 C 181.13 91.44 177.68 86.43 172.59 88.33 M 68.15 105.30 C 66.10 109.46 64.01 113.61 62.23 117.89 C 66.45 119.99 70.69 122.07 74.89 124.21 C 75.94 124.64 77.35 125.56 78.38 124.58 C 80.67 121.68 82.48 118.40 83.96 115.02 C 83.04 113.57 81.31 112.91 79.99 111.94 C 76.11 109.61 72.24 107.25 68.15 105.30 M 278.38 106.43 C 273.81 108.76 269.20 111.20 265.15 114.38 C 265.02 118.71 268.29 122.21 270.09 125.89 C 275.67 123.58 280.95 120.46 285.85 116.93 C 284.35 113.08 282.46 109.27 279.80 106.10 C 279.45 106.18 278.74 106.34 278.38 106.43 M 49.44 167.00 C 49.08 167.31 48.34 167.94 47.98 168.25 C 47.75 172.10 47.78 175.97 48.08 179.83 C 54.33 180.44 60.63 180.04 66.89 179.93 C 67.35 175.69 67.01 171.39 66.90 167.14 C 61.10 166.59 55.25 166.86 49.44 167.00 M 282.11 168.06 C 281.65 172.31 281.95 176.60 282.06 180.88 C 287.98 181.39 293.95 181.06 299.89 180.94 C 300.35 176.68 300.02 172.38 299.94 168.12 C 294.01 167.61 288.04 167.93 282.11 168.06 M 77.53 222.35 C 72.67 224.89 67.89 227.61 63.24 230.53 C 62.57 234.85 65.88 238.68 68.18 242.01 C 73.63 240.18 78.66 237.27 83.82 234.78 C 82.90 230.17 80.05 226.22 77.53 222.35 M 270.20 223.02 C 267.99 226.51 265.65 229.99 264.16 233.88 C 269.00 237.13 274.02 240.53 279.72 242.02 C 282.01 238.92 285.32 236.13 286.06 232.16 C 281.39 228.24 275.70 225.56 270.20 223.02 M 114.34 265.20 C 112.63 267.31 111.38 269.73 109.97 272.03 C 108.47 274.78 106.39 277.47 106.19 280.72 C 109.63 282.66 113.08 284.73 116.89 285.87 C 120.04 280.98 123.58 275.99 124.96 270.25 C 121.97 267.81 118.22 265.44 114.34 265.20 M 232.35 265.43 C 228.98 266.52 226.01 268.54 223.05 270.44 C 222.90 271.69 223.05 273.00 223.69 274.11 C 225.84 278.32 228.46 282.26 231.24 286.09 C 235.27 284.99 238.54 282.22 241.93 279.93 C 239.54 274.84 237.16 269.65 233.80 265.11 C 233.44 265.19 232.71 265.35 232.35 265.43 M 167.12 282.06 C 166.61 287.98 166.93 293.95 167.06 299.89 C 171.31 300.35 175.60 300.02 179.88 299.94 C 180.39 294.01 180.06 288.04 179.94 282.11 C 175.68 281.65 171.38 281.95 167.12 282.06 Z" />
</g>
<g id="#000000ff">
<path fill="#000000" opacity="1.00" d=" M 158.67 1.54 C 178.27 -0.16 198.07 2.79 216.97 8.00 C 220.31 8.83 223.57 9.93 226.73 11.29 C 233.26 14.07 239.98 16.44 246.33 19.67 C 262.40 28.20 277.17 39.12 290.31 51.68 C 297.25 58.19 302.66 66.04 308.54 73.47 C 311.72 78.08 314.20 83.14 317.05 87.95 C 322.27 97.46 328.08 106.88 330.27 117.66 C 338.23 140.37 338.89 164.87 337.73 188.67 C 337.26 196.78 335.01 204.60 333.56 212.56 C 333.06 217.93 330.47 222.68 328.57 227.63 C 323.49 241.86 316.93 255.70 307.86 267.85 C 301.52 276.10 294.87 284.14 287.29 291.29 C 273.29 306.11 255.25 316.31 237.01 324.99 C 227.57 329.68 217.27 332.17 207.23 335.20 C 197.63 338.08 187.51 337.84 177.63 338.78 C 162.04 340.20 146.51 337.73 131.26 334.75 C 114.44 330.24 97.75 324.40 82.98 315.00 C 69.86 307.24 58.48 296.98 47.72 286.27 C 34.38 272.26 23.62 255.81 15.98 238.04 C 14.14 233.77 11.85 229.66 10.89 225.06 C 8.21 214.89 4.82 204.86 3.59 194.37 C 1.32 175.69 0.76 156.53 5.05 138.09 C 8.84 121.56 13.71 105.04 22.34 90.33 C 26.48 83.51 30.76 76.77 34.97 69.99 C 39.72 61.70 47.17 55.52 53.72 48.72 C 62.23 39.67 72.70 32.81 82.99 25.99 C 97.91 17.07 114.17 10.40 130.93 5.89 C 140.13 4.19 149.41 2.88 158.67 1.54 M 155.61 21.51 C 142.89 23.24 130.37 26.27 118.14 30.12 C 109.66 33.53 101.56 37.86 94.05 43.07 C 83.88 48.85 74.20 55.63 65.99 64.00 C 61.27 69.29 56.33 74.41 52.08 80.10 C 42.06 94.58 32.75 109.95 28.09 127.08 C 25.44 137.90 21.32 148.67 21.94 159.99 C 21.96 174.37 21.22 189.01 24.96 203.05 C 28.13 218.73 34.79 233.45 42.77 247.22 C 50.90 258.88 58.51 271.25 69.64 280.37 C 77.08 287.08 85.03 293.25 93.74 298.24 C 100.75 303.65 109.32 306.08 117.23 309.78 C 129.08 314.36 141.45 317.98 154.17 318.89 C 169.82 319.36 185.66 319.36 201.03 316.03 C 206.19 314.87 211.36 313.73 216.51 312.55 C 221.55 311.42 225.94 308.56 230.70 306.67 C 239.84 303.16 248.56 298.38 256.04 292.02 C 258.95 289.54 262.21 287.52 265.38 285.40 C 270.11 282.19 273.44 277.42 277.32 273.32 C 285.05 265.28 292.84 257.01 298.03 247.04 C 301.62 240.24 306.08 233.80 308.39 226.40 C 313.14 212.41 318.41 198.00 318.05 183.02 C 317.71 167.31 319.40 151.23 315.06 135.90 C 313.13 125.52 308.76 115.83 305.05 106.02 C 301.26 98.96 296.73 92.31 292.57 85.45 C 287.05 78.66 282.41 71.03 275.60 65.39 C 268.19 59.13 261.55 51.87 253.22 46.77 C 246.10 42.45 239.14 37.70 231.33 34.70 C 207.96 23.35 181.44 18.83 155.61 21.51 Z" />
<path fill="#000000" opacity="1.00" d=" M 168.12 48.06 C 172.38 47.96 176.68 47.65 180.94 48.11 C 181.06 54.05 181.39 60.02 180.88 65.94 C 176.60 66.03 172.31 66.35 168.06 65.89 C 167.93 59.95 167.61 53.98 168.12 48.06 Z" />
<path fill="#000000" opacity="1.00" d=" M 115.37 62.45 C 115.73 62.34 116.43 62.14 116.78 62.04 C 119.98 67.21 123.35 72.33 125.86 77.88 C 122.65 80.01 119.54 82.35 116.01 83.95 C 114.04 83.45 113.10 81.41 112.10 79.84 C 110.09 76.03 107.77 72.33 106.38 68.23 C 109.29 66.18 112.22 64.10 115.37 62.45 Z" />
<path fill="#000000" opacity="1.00" d=" M 231.19 62.01 C 235.40 63.33 238.94 66.14 242.73 68.32 C 242.53 71.74 239.83 74.35 238.24 77.22 C 236.68 79.01 235.89 81.80 233.71 82.91 C 229.67 82.86 226.11 80.10 222.99 77.81 C 224.81 72.15 228.50 67.28 231.19 62.01 Z" />
<path fill="#000000" opacity="1.00" d=" M 172.59 88.33 C 177.68 86.43 181.13 91.44 181.64 95.72 C 182.64 115.56 181.59 135.46 181.99 155.32 C 183.42 159.50 188.27 161.31 189.77 165.49 C 191.13 169.50 191.24 173.95 190.41 178.08 C 188.02 184.85 180.90 189.13 173.98 189.83 C 166.57 189.24 158.32 184.23 157.43 176.29 C 156.18 171.22 157.39 165.75 160.44 161.59 C 162.37 159.44 164.92 157.97 167.03 156.03 C 167.21 136.11 166.75 116.19 167.04 96.27 C 167.14 92.85 168.76 88.85 172.59 88.33 Z" />
<path fill="#000000" opacity="1.00" d=" M 68.15 105.30 C 72.24 107.25 76.11 109.61 79.99 111.94 C 81.31 112.91 83.04 113.57 83.96 115.02 C 82.48 118.40 80.67 121.68 78.38 124.58 C 77.35 125.56 75.94 124.64 74.89 124.21 C 70.69 122.07 66.45 119.99 62.23 117.89 C 64.01 113.61 66.10 109.46 68.15 105.30 Z" />
<path fill="#000000" opacity="1.00" d=" M 278.38 106.43 C 278.74 106.34 279.45 106.18 279.80 106.10 C 282.46 109.27 284.35 113.08 285.85 116.93 C 280.95 120.46 275.67 123.58 270.09 125.89 C 268.29 122.21 265.02 118.71 265.15 114.38 C 269.20 111.20 273.81 108.76 278.38 106.43 Z" />
<path fill="#000000" opacity="1.00" d=" M 49.44 167.00 C 55.25 166.86 61.10 166.59 66.90 167.14 C 67.01 171.39 67.35 175.69 66.89 179.93 C 60.63 180.04 54.33 180.44 48.08 179.83 C 47.78 175.97 47.75 172.10 47.98 168.25 C 48.34 167.94 49.08 167.31 49.44 167.00 Z" />
<path fill="#000000" opacity="1.00" d=" M 282.11 168.06 C 288.04 167.93 294.01 167.61 299.94 168.12 C 300.02 172.38 300.35 176.68 299.89 180.94 C 293.95 181.06 287.98 181.39 282.06 180.88 C 281.95 176.60 281.65 172.31 282.11 168.06 Z" />
<path fill="#000000" opacity="1.00" d=" M 77.53 222.35 C 80.05 226.22 82.90 230.17 83.82 234.78 C 78.66 237.27 73.63 240.18 68.18 242.01 C 65.88 238.68 62.57 234.85 63.24 230.53 C 67.89 227.61 72.67 224.89 77.53 222.35 Z" />
<path fill="#000000" opacity="1.00" d=" M 270.20 223.02 C 275.70 225.56 281.39 228.24 286.06 232.16 C 285.32 236.13 282.01 238.92 279.72 242.02 C 274.02 240.53 269.00 237.13 264.16 233.88 C 265.65 229.99 267.99 226.51 270.20 223.02 Z" />
<path fill="#000000" opacity="1.00" d=" M 114.34 265.20 C 118.22 265.44 121.97 267.81 124.96 270.25 C 123.58 275.99 120.04 280.98 116.89 285.87 C 113.08 284.73 109.63 282.66 106.19 280.72 C 106.39 277.47 108.47 274.78 109.97 272.03 C 111.38 269.73 112.63 267.31 114.34 265.20 Z" />
<path fill="#000000" opacity="1.00" d=" M 232.35 265.43 C 232.71 265.35 233.44 265.19 233.80 265.11 C 237.16 269.65 239.54 274.84 241.93 279.93 C 238.54 282.22 235.27 284.99 231.24 286.09 C 228.46 282.26 225.84 278.32 223.69 274.11 C 223.05 273.00 222.90 271.69 223.05 270.44 C 226.01 268.54 228.98 266.52 232.35 265.43 Z" />
<path fill="#000000" opacity="1.00" d=" M 167.12 282.06 C 171.38 281.95 175.68 281.65 179.94 282.11 C 180.06 288.04 180.39 294.01 179.88 299.94 C 175.60 300.02 171.31 300.35 167.06 299.89 C 166.93 293.95 166.61 287.98 167.12 282.06 Z" />
</g>
</svg>
